<?xml version="1.0" encoding="utf-8"?>
<svg viewBox="11.798 4.092 478.826 597.314" xmlns="http://www.w3.org/2000/svg" xmlns:bx="https://boxy-svg.com">
  <g transform="matrix(4.253013134003, 0, -0.000001, 4.718772888184, 119.452796741779, 100.264711624011)" style="transform-origin: 132.939px 203.094px;">
      <path style="fill: rgb(2, 2, 2); stroke: rgba(195, 189, 200, 0.57); transform-box: fill-box; transform-origin: 50% 50%;" d="M -246.823 -365.433 H -161.044 A 6.8 6.8 0 0 1 -154.244 -358.633 V -350.985 A 6.33 6.33 0 0 1 -160.574 -344.655 H -247.323 A 6.3 6.3 0 0 1 -253.623 -350.955 V -358.633 A 6.8 6.8 0 0 1 -246.823 -365.433 Z" transform="matrix(-0.796954, 0.60404, -0.68402, -0.736334, 346.226478, 584.92865)" bx:shape="rect -253.623 -365.433 99.379 20.778 6.8 6.8 6.33 6.3 1@7d983ce4">
        <desc>Salech logo for white background</desc>
        <title>Salech Logo</title>
      </path>
      <path style="paint-order: fill; fill-rule: nonzero; fill: rgb(2, 2, 2); stroke: rgba(195, 195, 195, 0.6); transform-origin: 203.936px 291.023px;" d="M 161.048 280.578 H 246.827 A 6.8 6.8 0 0 1 253.627 287.378 V 295.142 A 6.33 6.33 0 0 1 247.297 301.472 H 158.248 A 4 4 0 0 1 154.248 297.472 V 287.378 A 6.8 6.8 0 0 1 161.048 280.578 Z" transform="matrix(0.796954, -0.60404, 0.68402, 0.736334, -80.314181, -114.676978)" bx:shape="rect 154.248 280.578 99.379 20.894 6.8 6.8 6.33 4 1@4bcdf774">
        <desc>Salech logo for white background</desc>
        <title>Salech Logo</title>
      </path>
      <rect style="fill: rgb(216, 211, 214); transform-box: fill-box; transform-origin: 50% 50%; stroke: rgba(0, 0, 0, 0.573);" transform="matrix(-0.000002, -1, 1, -0.000002, -118.251283, -610.396045)" x="241.362" y="759.817" width="18.644" height="107.682" rx="5.7" ry="5.7">
        <desc>Salech logo for white background</desc>
        <title>Salech Logo</title>
      </rect>
  </g>
</svg>