<?xml version="1.0" encoding="utf-8"?>
<svg viewBox="0 0 500 670" xmlns="http://www.w3.org/2000/svg" xmlns:bx="https://boxy-svg.com">
  <g transform="matrix(4.253014087677002, 0, 0, 4.718772888183594, -312.9996337890625, -654.9957275390625)" style="">
    <path style="fill: rgb(2, 2, 2); transform-box: fill-box; transform-origin: 50% 50%; stroke: rgb(198, 192, 203);" d="M -164.189 -246.225 H -110.789 A 6.8 6.8 0 0 1 -103.989 -239.425 V -238.555 A 6.33 6.33 0 0 1 -110.319 -232.225 H -164.689 A 6.3 6.3 0 0 1 -170.989 -238.525 V -239.425 A 6.8 6.8 0 0 1 -164.189 -246.225 Z" transform="matrix(-0.766045, 0.642787, -0.642787, -0.766045, 275.878331, 456.246815)" bx:shape="rect -170.989 -246.225 67 14 6.8 6.8 6.33 6.3 1@66b2cfce">
      <desc>Salech logo for white background</desc>
      <title>Salech Logo</title>
    </path>
    <path style="transform-origin: 137.503px 194.956px; paint-order: fill; fill-rule: nonzero; fill: rgb(2, 2, 2); stroke: rgb(195, 195, 195);" d="M 110.8 187.958 H 164.206 A 6.8 6.8 0 0 1 171.006 194.758 V 195.625 A 6.33 6.33 0 0 1 164.676 201.955 H 108 A 4 4 0 0 1 104 197.955 V 194.758 A 6.8 6.8 0 0 1 110.8 187.958 Z" transform="matrix(0.766045, -0.642787, 0.642787, 0.766045, -13.081075, -15.18115)" bx:shape="rect 104 187.958 67.006 13.997 6.8 6.8 6.33 4 1@65ea0d7d">
      <desc>Salech logo for white background</desc>
      <title>Salech Logo</title>
    </path>
    <rect style="fill: rgb(216, 211, 214); stroke: rgb(194, 194, 194); transform-box: fill-box; transform-origin: 50% 50%;" transform="matrix(-0.000002, -1, 1, -0.000002, -51.209545, -331.351388)" x="176.107" y="494.74" width="13.603" height="70.115" rx="5.7" ry="5.7">
      <desc>Salech logo for white background</desc>
      <title>Salech Logo</title>
    </rect>
  </g>
</svg>